<?xml version="1.0" encoding="UTF-8" standalone="no"?>
<!DOCTYPE svg PUBLIC "-//W3C//DTD SVG 1.1//EN" "http://www.w3.org/Graphics/SVG/1.1/DTD/svg11.dtd">
<svg version="1.1" xmlns="http://www.w3.org/2000/svg" xmlns:xlink="http://www.w3.org/1999/xlink" preserveAspectRatio="xMidYMid meet" viewBox="0 0 640 640" width="640" height="640"><defs><path d="M75.87 590C65.19 590 58.76 584.04 55.87 580.49C50.88 574.36 48.95 566.38 50.57 558.59C76.53 433.89 186.58 342.82 313.63 339.87C315.75 339.95 317.87 340 320 340C322.15 340 324.29 339.95 326.43 339.87C357.49 340.58 387.84 346.42 416.72 357.26C429.65 362.12 444.06 355.57 448.92 342.65C453.77 329.72 447.23 315.31 434.3 310.45C430.16 308.9 425.99 307.44 421.81 306.06C463.18 275.03 490 225.59 490 170C490 76.26 413.74 0 320 0C226.26 0 150 76.26 150 170C150 225.64 176.86 275.12 218.3 306.15C180.34 318.65 144.71 338.08 113.54 363.73C56.37 410.75 16.63 476.33 1.62 548.4C-3.08 570.99 2.55 594.18 17.08 612.04C31.53 629.81 52.96 640 75.87 640C84.72 640 155.52 640 164.38 640C178.18 640 189.38 628.81 189.38 615C189.38 601.19 178.18 590 164.38 590C146.67 590 84.72 590 75.87 590ZM320 50C386.17 50 440 103.83 440 170C440 234.21 389.31 286.8 325.84 289.86C323.9 289.82 321.95 289.79 320 289.79C318.04 289.79 316.09 289.82 314.14 289.85C250.68 286.79 200 234.2 200 170C200 103.83 253.83 50 320 50Z" id="bfSGs6buU"></path><path d="M442.78 482.71L497.82 482.71C546.96 482.71 577.68 482.71 589.96 482.71C591.82 482.71 593.32 484.21 593.32 486.06C593.32 495.83 593.32 521.8 593.32 531.57C593.32 533.42 591.82 534.92 589.96 534.92C577.62 534.92 546.74 534.92 497.35 534.92L443.72 534.92C391.21 534.92 358.39 534.92 345.27 534.92C343 534.92 341.17 533.09 341.17 530.83C341.17 521.2 341.17 496.43 341.17 486.8C341.17 484.54 343 482.71 345.27 482.71C358.27 482.71 390.77 482.71 442.78 482.71Z" id="a1U7X7pUpl"></path><path d="M497.35 628.88C497.35 631.68 495.08 633.95 492.28 633.95C482.71 633.95 459.07 633.95 449.5 633.95C446.7 633.95 444.43 631.68 444.43 628.88C444.43 579.47 444.43 436.29 444.43 386.87C444.43 384.07 446.7 381.8 449.5 381.8C459.07 381.8 482.71 381.8 492.28 381.8C495.08 381.8 497.35 384.07 497.35 386.87C497.35 436.29 497.35 579.47 497.35 628.88Z" id="bWqSVb7Vo"></path></defs><g><g><g><use xlink:href="#bfSGs6buU" opacity="1" fill="#000000" fill-opacity="1"></use><g><use xlink:href="#bfSGs6buU" opacity="1" fill-opacity="0" stroke="#000000" stroke-width="1" stroke-opacity="0"></use></g></g><g><use xlink:href="#a1U7X7pUpl" opacity="1" fill="#000000" fill-opacity="1"></use><g><use xlink:href="#a1U7X7pUpl" opacity="1" fill-opacity="0" stroke="#000000" stroke-width="1" stroke-opacity="1"></use></g></g><g><use xlink:href="#bWqSVb7Vo" opacity="1" fill="#000000" fill-opacity="1"></use><g><use xlink:href="#bWqSVb7Vo" opacity="1" fill-opacity="0" stroke="#000000" stroke-width="1" stroke-opacity="1"></use></g></g></g></g></svg>